<svg xmlns="http://www.w3.org/2000/svg" width="512" height="512" viewBox="0 0 512 512" fill="none">
  <rect width="512" height="512" rx="128" fill="#2563eb"/>
  <path d="M140 170H372C385.255 170 396 180.745 396 194V318C396 331.255 385.255 342 372 342H140C126.745 342 116 331.255 116 318V194C116 180.745 126.745 170 140 170Z" fill="white"/>
  <path d="M182 212L224 246.667L182 281.333V212Z" fill="#2563eb"/>
  <path d="M260 240H340C348.837 240 356 247.163 356 256C356 264.837 348.837 272 340 272H260C251.163 272 244 264.837 244 256C244 247.163 251.163 240 260 240Z" fill="#2563eb"/>
</svg> 