<svg xmlns="http://www.w3.org/2000/svg" width="120" height="40" viewBox="0 0 120 40" fill="none">
  <path d="M10.248 28V12.44H17.592C19.848 12.44 21.576 12.936 22.776 13.928C23.992 14.904 24.6 16.248 24.6 17.96C24.6 19.096 24.28 20.088 23.64 20.936C23 21.768 22.104 22.36 20.952 22.712C22.312 22.952 23.376 23.512 24.144 24.392C24.928 25.272 25.32 26.368 25.32 27.68C25.32 29.504 24.68 30.912 23.4 31.904C22.12 32.88 20.296 33.368 17.928 33.368H10.248V28ZM14.712 21.08H17.544C18.44 21.08 19.104 20.904 19.536 20.552C19.984 20.2 20.208 19.688 20.208 19.016C20.208 18.344 19.984 17.84 19.536 17.504C19.104 17.152 18.44 16.976 17.544 16.976H14.712V21.08ZM14.712 25.304V28.856H18.072C18.968 28.856 19.632 28.664 20.064 28.28C20.512 27.88 20.736 27.32 20.736 26.6C20.736 25.88 20.512 25.336 20.064 24.968C19.632 24.584 18.968 24.392 18.072 24.392H14.712V25.304Z" fill="#4b5563"/>
  <path d="M35.4157 33.368C33.1277 33.368 31.3037 32.696 29.9437 31.352C28.5837 30.008 27.9037 28.152 27.9037 25.784V12.44H32.3917V25.688C32.3917 26.936 32.6957 27.888 33.3037 28.544C33.9117 29.184 34.7677 29.504 35.8717 29.504C36.9757 29.504 37.8317 29.184 38.4397 28.544C39.0477 27.888 39.3517 26.936 39.3517 25.688V12.44H43.8397V25.784C43.8397 28.152 43.1597 30.008 41.7997 31.352C40.4397 32.696 38.7037 33.368 35.4157 33.368Z" fill="#4b5563"/>
  <path d="M57.4723 33.368C54.8883 33.368 52.9643 32.68 51.7003 31.304C50.4363 29.928 49.8043 27.936 49.8043 25.328V12.44H54.2923V25.304C54.2923 26.6 54.5803 27.584 55.1563 28.256C55.7483 28.912 56.5723 29.24 57.6603 29.24C58.7483 29.24 59.5723 28.912 60.1323 28.256C60.7083 27.584 60.9963 26.6 60.9963 25.304V12.44H65.4843V25.328C65.4843 27.936 64.8523 29.928 63.5883 31.304C62.3243 32.68 60.3523 33.368 57.4723 33.368Z" fill="#4b5563"/>
  <path d="M78.0976 33.368C75.8096 33.368 73.9856 32.696 72.6256 31.352C71.2656 30.008 70.5856 28.152 70.5856 25.784V12.44H75.0736V25.688C75.0736 26.936 75.3776 27.888 75.9856 28.544C76.5936 29.184 77.4496 29.504 78.5536 29.504C79.6576 29.504 80.5136 29.184 81.1216 28.544C81.7296 27.888 82.0336 26.936 82.0336 25.688V12.44H86.5216V25.784C86.5216 28.152 85.8416 30.008 84.4816 31.352C83.1216 32.696 81.3856 33.368 78.0976 33.368Z" fill="#4b5563"/>
  <path d="M89.8883 33.368V12.44H94.3763V28.88H103.024V33.368H89.8883Z" fill="#4b5563"/>
  <path d="M104.29 28L114.266 12.44H118.754V33.368H114.266V17.808L104.29 33.368H99.8018V12.44H104.29V28Z" fill="#2563eb"/>
</svg> 